<?xml version="1.0" encoding="UTF-8"?>
<!DOCTYPE svg PUBLIC "-//W3C//DTD SVG 1.1//EN" "http://www.w3.org/Graphics/SVG/1.1/DTD/svg11.dtd">
<!-- Creator: CorelDRAW Home & Student X8 -->
<svg xmlns="http://www.w3.org/2000/svg" xml:space="preserve" width="22mm" height="22mm" version="1.1" style="shape-rendering:geometricPrecision; text-rendering:geometricPrecision; image-rendering:optimizeQuality; fill-rule:evenodd; clip-rule:evenodd"
viewBox="0 0 2200 2200"
 xmlns:xlink="http://www.w3.org/1999/xlink">
 <defs>
  <style type="text/css">
   <![CDATA[
    .str0 {stroke:black;stroke-width:100;stroke-linejoin:round}
    .fil0 {fill:none}
   ]]>
  </style>
 </defs>
 <g id="Слой_x0020_1">
  <metadata id="CorelCorpID_0Corel-Layer"/>
  <path class="fil0 str0" d="M308 909l-160 -85 61 -174 181 52 134 -175 -107 -144 120 -125 134 133 200 -79 -21 -187 185 -32 35 174 220 28 66 -168c60,21 121,42 182,63 -20,61 -41,121 -59,182 53,41 109,89 169,120 52,-29 97,-66 147,-100 48,46 90,88 127,144 -20,20 -121,110 -125,124 -1,45 52,153 78,191 64,-2 136,-18 200,-28 4,32 28,171 19,193 -26,6 -149,27 -163,41 -25,38 -40,157 -42,206 48,31 98,55 149,81 -18,59 -34,113 -58,170 -23,-5 -174,-48 -184,-45 -21,7 -107,134 -124,159 33,49 72,98 107,144 -44,48 -90,95 -135,142 -38,-43 -76,-88 -116,-130 -28,10 -183,63 -194,81 -3,7 10,150 11,170 -63,15 -122,22 -186,31 -5,-20 -38,-157 -46,-164 -4,-4 -190,-50 -209,-30 0,1 -55,110 -66,127 -12,21 -4,16 -38,7 -43,-12 -80,-28 -121,-45 5,-23 43,-178 38,-189 -6,-16 -143,-108 -168,-107 -15,1 -137,88 -162,103 -43,-45 -77,-90 -116,-138 14,-15 118,-119 121,-128 3,-13 -55,-181 -70,-190 -10,-7 -173,7 -198,9 -11,-60 -19,-117 -28,-177 63,-9 132,-16 194,-30 11,-64 13,-140 18,-205zm330 234c-40,-252 133,-488 386,-527 252,-40 488,133 527,385 40,253 -133,489 -386,528 -252,40 -488,-133 -527,-386z"/>
 </g>
</svg>
