<?xml version="1.0" encoding="UTF-8"?>
<!DOCTYPE svg PUBLIC "-//W3C//DTD SVG 1.1//EN" "http://www.w3.org/Graphics/SVG/1.1/DTD/svg11.dtd">
<!-- Creator: CorelDRAW Home & Student X8 -->
<svg xmlns="http://www.w3.org/2000/svg" xml:space="preserve" width="22mm" height="22mm" version="1.1" style="shape-rendering:geometricPrecision; text-rendering:geometricPrecision; image-rendering:optimizeQuality; fill-rule:evenodd; clip-rule:evenodd"
viewBox="0 0 2200 2200"
 xmlns:xlink="http://www.w3.org/1999/xlink">
 <defs>
  <style type="text/css">
   <![CDATA[
    .str0 {stroke:black;stroke-width:100;stroke-linecap:round;stroke-linejoin:round}
    .fil0 {fill:none}
   ]]>
  </style>
 </defs>
 <g id="Слой_x0020_1">
  <metadata id="CorelCorpID_0Corel-Layer"/>
  <g id="_128506368">
   <path class="fil0 str0" d="M955 529c45,36 85,80 145,68 39,-8 54,-18 97,-20 -29,51 63,178 72,134 -19,1 -88,-45 -72,-134 6,-34 18,-94 22,-125 5,-35 28,-51 53,-77 28,-31 62,-75 98,-93 35,-16 120,-62 155,-57 20,4 189,59 204,70 29,21 105,89 116,120 21,61 -6,53 53,98 34,24 89,58 112,91 21,30 88,120 92,153 2,23 -2,178 -11,194 -2,4 -7,11 -11,15 -12,19 -88,120 -89,134 -3,39 27,119 23,177 -1,9 -2,14 -5,23 -9,28 -56,113 -80,129 -34,23 -161,33 -198,10 -124,-79 -17,-78 -225,-4 19,10 124,-57 127,-47 9,28 30,256 32,290 2,59 6,125 6,184 0,45 -39,142 -54,191 -5,18 -6,5 -12,-12 -24,-59 -82,-210 -114,-255 -19,-24 -52,-44 -77,-62 -47,-35 -93,-70 -139,-105 -38,-26 -267,-176 -280,-194 -18,-24 -6,-106 2,-128 38,-97 77,-141 139,-190 23,-18 105,-64 126,-71 367,-115 294,129 318,130"/>
   <path class="fil0 str0" d="M945 1421c0,0 -128,-5 -145,-17 -28,-18 -65,-43 -72,-43 -9,0 -79,25 -95,29 -31,10 -81,26 -112,28 -35,-2 -129,-42 -159,-64 -34,-26 -76,-64 -82,-109 -4,-33 -7,-80 -10,-115 -8,-91 -12,-96 47,-169 7,-9 14,-18 22,-27 36,-43 54,-44 108,-61 32,-11 100,-31 133,-32 48,3 119,16 168,24 9,1 17,2 25,4"/>
   <path class="fil0 str0" d="M281 1215c-47,-38 -158,-122 -192,-163 -7,-23 -6,-115 -6,-146 0,-23 -2,-58 1,-81 6,-36 44,-123 65,-153 14,-16 65,-72 82,-79 57,-25 129,-57 184,-87 7,-4 14,-8 20,-13 40,-48 62,-140 114,-174 34,-21 152,-87 186,-90 59,-4 123,32 179,-1 8,-5 15,-11 22,-17 88,-79 72,-73 189,-99 32,-7 46,-5 78,-3 149,13 156,31 255,136"/>
  </g>
 </g>
</svg>
