<?xml version="1.0" encoding="UTF-8"?>
<!DOCTYPE svg PUBLIC "-//W3C//DTD SVG 1.1//EN" "http://www.w3.org/Graphics/SVG/1.1/DTD/svg11.dtd">
<!-- Creator: CorelDRAW Home & Student X8 -->
<svg xmlns="http://www.w3.org/2000/svg" xml:space="preserve" width="22mm" height="22mm" version="1.1" style="shape-rendering:geometricPrecision; text-rendering:geometricPrecision; image-rendering:optimizeQuality; fill-rule:evenodd; clip-rule:evenodd"
viewBox="0 0 2200 2200"
 xmlns:xlink="http://www.w3.org/1999/xlink">
 <defs>
  <style type="text/css">
   <![CDATA[
    .str0 {stroke:black;stroke-width:100}
    .fil0 {fill:none}
   ]]>
  </style>
 </defs>
 <g id="Слой_x0020_1">
  <metadata id="CorelCorpID_0Corel-Layer"/>
  <g id="_605359160">
   <path class="fil0 str0" d="M1866 261c458,357 125,1006 -212,1321 -81,76 -460,399 -579,378 -177,-30 -607,-426 -719,-561 -703,-904 101,-1432 572,-1124 239,157 150,86 401,-42 197,-100 351,-81 537,28z"/>
   <path class="fil0 str0" d="M1647 523c328,256 90,720 -152,946 -58,54 -329,285 -415,271 -126,-22 -433,-305 -514,-402 -503,-647 73,-1025 410,-804 170,112 107,61 287,-30 141,-72 251,-59 384,19z"/>
  </g>
 </g>
</svg>
