<?xml version="1.0" encoding="UTF-8"?>
<!DOCTYPE svg PUBLIC "-//W3C//DTD SVG 1.1//EN" "http://www.w3.org/Graphics/SVG/1.1/DTD/svg11.dtd">
<!-- Creator: CorelDRAW Home & Student X8 -->
<svg xmlns="http://www.w3.org/2000/svg" xml:space="preserve" width="22mm" height="22mm" version="1.1" style="shape-rendering:geometricPrecision; text-rendering:geometricPrecision; image-rendering:optimizeQuality; fill-rule:evenodd; clip-rule:evenodd"
viewBox="0 0 2200 2200"
 xmlns:xlink="http://www.w3.org/1999/xlink">
 <defs>
  <style type="text/css">
   <![CDATA[
    .str0 {stroke:black;stroke-width:100;stroke-linecap:round;stroke-linejoin:round}
    .fil0 {fill:none}
   ]]>
  </style>
 </defs>
 <g id="Слой_x0020_1">
  <metadata id="CorelCorpID_0Corel-Layer"/>
  <g id="_605358512">
   <path class="fil0 str0" d="M960 1879c142,0 284,-1 426,-1"/>
   <path class="fil0 str0" d="M1006 2010c115,-1 230,-1 346,-2"/>
   <path class="fil0 str0" d="M1041 2142c90,0 179,0 269,-1"/>
   <path class="fil0 str0" d="M1247 1607c2,-299 16,-371 121,-650 -164,44 -135,-20 -239,14 -114,36 -181,-93 -102,81 84,185 83,358 79,555"/>
   <path class="fil0 str0" d="M1355 1703c79,-164 52,-121 177,-261 147,-166 216,-295 192,-532 -24,-242 -251,-446 -494,-476 -494,-60 -779,498 -515,883 82,120 232,225 258,369 15,77 51,56 150,57 69,1 213,17 232,-40z"/>
   <path class="fil0 str0" d="M373 518c42,25 83,50 125,76l35 21"/>
   <path class="fil0 str0" d="M702 184c21,32 42,64 62,96l45 69"/>
   <path class="fil0 str0" d="M1176 56c1,50 1,99 2,149l0 41"/>
   <path class="fil0 str0" d="M1630 189c-31,50 -62,101 -93,152"/>
   <path class="fil0 str0" d="M1969 517c-43,26 -87,52 -130,77l-32 20"/>
  </g>
 </g>
</svg>
