<?xml version="1.0" encoding="UTF-8"?>
<!DOCTYPE svg PUBLIC "-//W3C//DTD SVG 1.1//EN" "http://www.w3.org/Graphics/SVG/1.1/DTD/svg11.dtd">
<!-- Creator: CorelDRAW Home & Student X8 -->
<svg xmlns="http://www.w3.org/2000/svg" xml:space="preserve" width="21mm" height="21mm" version="1.1" style="shape-rendering:geometricPrecision; text-rendering:geometricPrecision; image-rendering:optimizeQuality; fill-rule:evenodd; clip-rule:evenodd"
viewBox="0 0 2100 2100"
 xmlns:xlink="http://www.w3.org/1999/xlink">
 <defs>
  <style type="text/css">
   <![CDATA[
    .str0 {stroke:#2B2A29;stroke-width:0.49;stroke-linecap:round;stroke-linejoin:round}
    .fil0 {fill:url(#id0);fill-rule:nonzero}
   ]]>
  </style>
  <linearGradient id="id0" gradientUnits="userSpaceOnUse" x1="246.96" y1="1569.11" x2="1852.04" y2="540.66">
   <stop offset="0" style="stop-opacity:1; stop-color:#722E85"/>
   <stop offset="0.168627" style="stop-opacity:1; stop-color:#393185"/>
   <stop offset="0.341176" style="stop-opacity:1; stop-color:#00A0E3"/>
   <stop offset="0.501961" style="stop-opacity:1; stop-color:#54AF3A"/>
   <stop offset="0.65098" style="stop-opacity:1; stop-color:#FFEC00"/>
   <stop offset="0.811765" style="stop-opacity:1; stop-color:#EC691F"/>
   <stop offset="1" style="stop-opacity:1; stop-color:#E31E24"/>
  </linearGradient>
 </defs>
 <g id="Слой_x0020_1">
  <metadata id="CorelCorpID_0Corel-Layer"/>
  <path class="fil0 str0" d="M155 1120c-6,16 -12,30 -18,40 -10,16 -19,38 -39,41 -6,1 -12,1 -16,0 -15,-5 -17,-23 -7,-39 9,-13 20,-26 16,-35 -1,-3 -5,-11 -8,-16 -4,-8 -8,-16 -12,-24 -4,-7 -7,-14 -11,-22 -8,-16 -15,-31 -23,-47 -1,-2 -2,-4 -3,-6 -9,-19 -20,-38 -28,-57 -8,-17 -5,-34 14,-40 13,-3 27,-1 35,10 5,8 9,20 13,29 4,8 8,16 11,24 6,12 12,24 17,36 5,10 9,22 14,31 14,28 21,-7 25,-19 0,-2 1,-3 2,-5 1,-3 2,-7 3,-10 7,-16 13,-33 19,-49 4,-12 11,-36 22,-43 15,-10 44,-9 46,19 0,10 -7,22 -11,31l-1 2c-9,22 -17,43 -26,65 -10,24 -19,48 -29,72 -1,4 -3,8 -5,12zm1474 182c-20,0 -37,-16 -37,-36 0,-21 17,-37 37,-37 20,0 37,16 37,37 0,20 -17,36 -37,36zm-59 121c-28,0 -50,-23 -50,-50 0,-28 22,-50 50,-50 27,0 50,22 50,50 0,27 -23,50 -50,50zm-99 142c-38,0 -69,-31 -69,-69 0,-37 31,-68 69,-68 37,0 68,31 68,68 0,38 -31,69 -68,69zm-155 140c-48,0 -87,-39 -87,-87 0,-48 39,-87 87,-87 48,0 87,39 87,87 0,48 -39,87 -87,87zm-219 116c-58,0 -105,-47 -105,-105 0,-58 47,-105 105,-105 58,0 105,47 105,105 0,58 -47,105 -105,105zm-276 34c-68,0 -124,-55 -124,-124 0,-68 56,-123 124,-123 68,0 123,55 123,123 0,69 -55,124 -123,124zm-308 -74c-78,0 -142,-64 -142,-142 0,-79 64,-142 142,-142 79,0 142,63 142,142 0,78 -63,142 -142,142zm-270 -974c21,0 37,17 37,37 0,20 -16,37 -37,37 -20,0 -36,-17 -36,-37 0,-20 16,-37 36,-37zm59 -120c28,0 50,22 50,50 0,28 -22,50 -50,50 -27,0 -49,-22 -49,-50 0,-28 22,-50 49,-50zm100 -142c38,0 68,31 68,68 0,38 -30,69 -68,69 -38,0 -69,-31 -69,-69 0,-37 31,-68 69,-68zm155 -140c47,0 86,39 86,87 0,48 -39,86 -86,86 -48,0 -87,-38 -87,-86 0,-48 39,-87 87,-87zm218 -117c59,0 106,47 106,106 0,58 -47,105 -106,105 -58,0 -105,-47 -105,-105 0,-59 47,-106 105,-106zm277 -33c68,0 123,55 123,123 0,69 -55,124 -123,124 -69,0 -124,-55 -124,-124 0,-68 55,-123 124,-123zm307 74c78,0 142,64 142,142 0,78 -64,142 -142,142 -78,0 -142,-64 -142,-142 0,-78 64,-142 142,-142zm380 791c-6,16 -12,30 -18,40 -10,16 -19,38 -39,41 -6,1 -12,1 -16,0 -15,-5 -17,-23 -7,-39 9,-13 20,-26 16,-35 -1,-3 -5,-11 -8,-16 -4,-8 -8,-16 -12,-24 -4,-7 -7,-14 -11,-22 -8,-16 -15,-31 -23,-47 -1,-2 -2,-4 -3,-6 -9,-19 -20,-38 -28,-57 -8,-17 -5,-34 14,-40 13,-3 27,-1 35,10 5,8 9,20 13,29 4,8 8,16 11,24 6,12 12,24 17,36 5,10 9,22 14,31 14,28 21,-7 25,-19 0,-2 1,-3 2,-5 1,-3 2,-7 3,-10 7,-16 13,-33 19,-49 4,-12 11,-36 22,-43 15,-10 44,-9 46,19 0,10 -7,22 -11,31l-1 2c-9,22 -17,43 -26,65 -10,24 -19,48 -29,72 -1,4 -3,8 -5,12zm-1494 -45c0,-19 -1,-39 -1,-58 1,-23 8,-30 31,-29l3 0c5,0 9,1 13,4 11,7 8,23 8,34 0,11 -1,30 5,39 7,9 60,10 69,-2 8,-9 -1,-44 5,-61 7,-14 20,-16 35,-15 24,3 20,25 19,43l0 1 0 2c0,47 0,94 0,141 0,16 -4,23 -21,25 -22,2 -33,-4 -33,-28 -1,-15 4,-56 -12,-58 -14,-2 -45,-4 -60,3 -6,3 -7,15 -7,26 -1,13 4,39 -4,49l-2 2c-15,12 -44,10 -48,-13 -2,-9 0,-19 0,-27 0,-26 0,-52 0,-78zm342 50c-2,2 -3,4 -5,7 -13,17 -26,35 -38,53 -12,13 -27,21 -45,11 -16,-9 -12,-25 -12,-41 0,-45 0,-90 0,-136 0,-15 2,-28 20,-31 19,-3 35,3 35,25 0,5 0,10 0,15 0,16 0,32 -1,49 -2,53 20,9 32,-7 2,-2 3,-4 4,-6 15,-20 30,-40 44,-60 11,-14 17,-18 35,-17 30,2 25,28 24,50 0,18 0,36 0,54 0,14 0,28 0,42 0,13 1,25 1,37 -2,22 -9,31 -31,30 -25,-2 -23,-22 -25,-41 -1,-17 0,-33 1,-49 1,-12 0,-32 -16,-17 -7,7 -12,17 -18,25 -1,2 -3,5 -5,7zm326 8c0,12 -2,21 -6,30 -5,8 -11,15 -19,21 -9,5 -19,10 -32,12 -12,3 -27,5 -44,5 -6,0 -11,0 -16,0 -13,0 -37,0 -47,-5 -18,-10 -14,-32 -14,-48l0 -2c0,-39 -1,-78 0,-117 0,-17 1,-34 20,-39 7,-2 14,-3 22,-3l2 0c6,0 11,-1 17,-1 6,0 12,0 18,0 16,0 29,1 40,3 12,2 21,6 28,10 7,5 13,10 16,16 4,7 6,14 6,23 -1,36 -22,33 -26,43 -2,6 9,10 14,12 15,8 20,24 21,40zm-60 -85c0,-4 -1,-8 -2,-11 -2,-3 -4,-5 -7,-7 -3,-2 -7,-4 -12,-5 -8,-2 -32,-3 -39,0 -9,6 -8,16 -8,26 1,26 7,24 31,23 6,-1 11,-1 16,-2 4,-1 7,-3 11,-5 6,-4 10,-11 10,-19zm5 85c0,-4 0,-8 -2,-12 -1,-3 -4,-6 -7,-9 -4,-2 -9,-4 -14,-5 -10,-1 -32,-4 -40,0 -13,8 -10,17 -9,31 1,28 3,27 31,25 6,0 12,-1 18,-2 6,-1 10,-3 14,-6 3,-3 5,-6 7,-9 2,-4 2,-8 2,-13zm170 25c6,2 14,3 24,3 9,0 18,0 25,-2 8,-2 14,-4 22,-6 17,-4 28,-2 26,18 -2,19 -12,21 -28,25 -8,2 -15,3 -23,5 -9,1 -18,2 -27,2 -17,0 -33,-3 -45,-7 -13,-4 -24,-11 -33,-20 -9,-8 -15,-20 -19,-33 -5,-14 -7,-29 -7,-47 0,-18 2,-33 7,-47 4,-14 11,-25 20,-35 8,-10 18,-17 31,-22 12,-5 26,-8 41,-8 16,0 30,3 42,7 11,5 21,12 28,20 7,9 13,19 16,30 7,24 15,58 -17,66 -9,1 -19,0 -28,0l-1 0c-7,0 -13,0 -19,0 -13,1 -26,1 -40,0 -14,-1 -25,0 -22,18 2,15 11,27 25,32l2 1zm13 -135c-7,0 -13,1 -18,4 -12,6 -24,21 -22,35 2,11 13,12 22,11 8,0 14,-1 23,-1 19,1 41,4 32,-24 -6,-18 -19,-25 -37,-25zm333 68c0,17 -2,32 -6,46 -4,14 -9,26 -16,35 -7,10 -16,18 -27,23 -10,5 -22,8 -36,8 -5,0 -11,-1 -15,-2 -12,-3 -11,-5 -21,-9 -6,-2 -13,-5 -19,7 -5,11 3,50 -3,66 -5,14 -26,14 -39,10 -17,-6 -14,-24 -13,-38 0,-76 0,-152 0,-228 0,-12 3,-20 17,-22 7,-1 15,1 21,6 20,14 26,4 54,-5l3 -1 2 -1c6,-1 12,-2 19,-2 14,0 26,3 36,9 10,5 18,13 25,23 6,9 10,20 13,33 3,13 5,27 5,42zm-57 3c0,-8 -1,-16 -2,-23 -1,-8 -4,-15 -6,-21 -3,-6 -9,-10 -14,-14 -8,-5 -24,-6 -34,-4 -11,2 -16,6 -21,11 -11,14 -9,35 -9,57 0,19 4,37 15,46 3,3 5,3 9,6 6,4 14,4 22,4 7,0 13,-2 18,-5 5,-4 9,-9 12,-15 4,-6 6,-12 7,-20 2,-7 3,-14 3,-22zm218 102c-6,2 -11,4 -18,5 -6,1 -13,2 -19,2 -15,0 -28,-3 -40,-7 -11,-5 -21,-12 -29,-21 -8,-9 -14,-20 -18,-33 -4,-13 -6,-28 -6,-45 0,-19 3,-36 8,-50 5,-14 11,-26 20,-35 9,-10 19,-17 31,-21 12,-5 25,-7 39,-7 6,0 11,1 17,2 12,2 36,9 41,22 8,26 -2,41 -29,28 -12,-6 -11,-7 -25,-7l-2 0c-14,0 -25,5 -32,16 -8,11 -11,27 -11,48 0,11 0,20 2,28 2,8 5,14 9,20 3,5 8,9 14,12 5,2 12,4 19,4 19,-2 16,-3 30,-9 12,-5 25,-4 28,11 1,4 0,8 0,12 -2,12 -7,15 -17,20 -4,2 -8,4 -12,5zm507 -64c-1,-8 -2,-16 -3,-24 -1,-7 -2,-14 -2,-21 -1,-3 0,-45 -10,-32 -4,5 -7,15 -8,22 -1,1 -1,3 -2,5 -9,29 -15,60 -27,88 -10,24 -26,33 -42,29 -13,-4 -22,-20 -28,-40 -5,-14 -9,-28 -13,-42 -3,-10 -6,-20 -10,-30l-1 -5c-1,-4 -8,-35 -14,-29 -5,5 -5,27 -5,34 -1,7 -2,14 -2,21 -2,17 -4,34 -6,51 -1,20 -1,38 -25,41 -23,3 -30,-13 -28,-33 1,-6 2,-12 3,-19l0 -1c2,-14 3,-28 5,-42 2,-25 3,-52 8,-77 6,-26 12,-37 38,-41 12,-1 28,1 37,8 10,8 15,25 19,37 6,17 11,33 16,50l1 3c2,5 9,43 16,41 5,-2 10,-31 12,-37 2,-9 6,-19 9,-28 3,-9 6,-17 8,-25 10,-30 21,-50 55,-49 20,0 34,12 38,31 1,8 1,17 2,25 1,6 1,11 2,17 1,9 2,17 3,26 3,26 5,51 8,77 3,21 1,37 -24,37 -29,-1 -27,-29 -28,-49 -1,-4 -1,-8 -2,-12 0,-2 0,-4 0,-7z"/>
 </g>
</svg>
