<?xml version="1.0" encoding="UTF-8"?>
<!DOCTYPE svg PUBLIC "-//W3C//DTD SVG 1.1//EN" "http://www.w3.org/Graphics/SVG/1.1/DTD/svg11.dtd">
<!-- Creator: CorelDRAW Home & Student X8 -->
<svg xmlns="http://www.w3.org/2000/svg" xml:space="preserve" width="22mm" height="22mm" version="1.1" style="shape-rendering:geometricPrecision; text-rendering:geometricPrecision; image-rendering:optimizeQuality; fill-rule:evenodd; clip-rule:evenodd"
viewBox="0 0 2200 2200"
 xmlns:xlink="http://www.w3.org/1999/xlink">
 <defs>
  <style type="text/css">
   <![CDATA[
    .str0 {stroke:black;stroke-width:100}
    .fil0 {fill:none}
   ]]>
  </style>
 </defs>
 <g id="Слой_x0020_1">
  <metadata id="CorelCorpID_0Corel-Layer"/>
  <g id="_605336336">
   <path class="fil0 str0" d="M205 1024c-30,-34 -147,-147 -149,-186 7,-45 177,-238 221,-292 134,-169 102,-124 301,-210 37,-16 113,-56 150,-58 94,-5 208,0 304,0 47,0 396,-3 410,2 78,30 166,78 244,114 133,60 137,88 228,197 57,69 113,134 172,202 51,57 25,67 -29,123 -133,140 -265,290 -395,433 -177,196 -354,391 -530,587 -10,11 -44,46 -59,46 -26,0 -151,-154 -175,-181 -230,-260 -460,-520 -693,-777z"/>
   <path class="fil0 str0" d="M377 423c40,18 311,147 327,151 17,3 333,6 379,7 117,2 234,5 350,7 92,-37 184,-77 275,-114 80,-32 96,-19 149,46 68,83 134,161 203,242 71,84 32,93 -60,119 -59,16 -405,115 -432,138 -24,21 -209,406 -240,467 -43,88 -87,175 -131,263 -12,25 -113,239 -122,241 -11,2 -54,-98 -60,-110 -140,-292 -285,-582 -427,-873 -176,-54 -352,-109 -529,-163l-19 -6"/>
   <path class="fil0 str0" d="M704 574c-39,144 -77,288 -116,433"/>
   <path class="fil0 str0" d="M588 1007c297,2 594,4 891,7 28,1 46,1 74,-9 2,-48 -50,-192 -67,-247 -18,-57 -35,-113 -53,-170"/>
  </g>
 </g>
</svg>
