<?xml version="1.0" encoding="UTF-8"?>
<!DOCTYPE svg PUBLIC "-//W3C//DTD SVG 1.1//EN" "http://www.w3.org/Graphics/SVG/1.1/DTD/svg11.dtd">
<!-- Creator: CorelDRAW Home & Student X8 -->
<svg xmlns="http://www.w3.org/2000/svg" xml:space="preserve" width="22mm" height="22mm" version="1.1" style="shape-rendering:geometricPrecision; text-rendering:geometricPrecision; image-rendering:optimizeQuality; fill-rule:evenodd; clip-rule:evenodd"
viewBox="0 0 2200 2200"
 xmlns:xlink="http://www.w3.org/1999/xlink">
 <defs>
  <style type="text/css">
   <![CDATA[
    .str1 {stroke:black;stroke-width:85}
    .str0 {stroke:black;stroke-width:100;stroke-linecap:round;stroke-linejoin:round}
    .fil0 {fill:none}
   ]]>
  </style>
 </defs>
 <g id="Слой_x0020_1">
  <metadata id="CorelCorpID_0Corel-Layer"/>
  <g id="_557949744">
   <path class="fil0 str0" d="M940 431c-185,7 -285,112 -346,278 -18,49 -57,154 -131,127 -98,-38 -35,-255 -6,-324 276,-653 1348,-401 1216,261 -48,238 -470,562 -500,766 -7,50 -22,136 -93,120 -103,-25 -60,-213 -40,-283 56,-189 146,-296 180,-509 6,-36 10,-71 12,-107 11,-148 -61,-255 -187,-308 -37,-15 -66,-21 -105,-21z"/>
   <path class="fil0 str1" d="M1137 1799c73,-12 142,38 154,111 12,73 -38,142 -112,154 -73,12 -142,-38 -154,-112 -11,-73 39,-142 112,-153z"/>
  </g>
 </g>
</svg>
