<?xml version="1.0" encoding="UTF-8"?>
<!DOCTYPE svg PUBLIC "-//W3C//DTD SVG 1.1//EN" "http://www.w3.org/Graphics/SVG/1.1/DTD/svg11.dtd">
<!-- Creator: CorelDRAW Home & Student X8 -->
<svg xmlns="http://www.w3.org/2000/svg" xml:space="preserve" width="22mm" height="22mm" version="1.1" style="shape-rendering:geometricPrecision; text-rendering:geometricPrecision; image-rendering:optimizeQuality; fill-rule:evenodd; clip-rule:evenodd"
viewBox="0 0 2200 2200"
 xmlns:xlink="http://www.w3.org/1999/xlink">
 <defs>
  <style type="text/css">
   <![CDATA[
    .str0 {stroke:black;stroke-width:100;stroke-linecap:round;stroke-linejoin:round}
    .fil0 {fill:none}
   ]]>
  </style>
 </defs>
 <g id="Слой_x0020_1">
  <metadata id="CorelCorpID_0Corel-Layer"/>
  <g id="_557927400">
   <path class="fil0 str0" d="M77 1816c63,-33 162,-94 229,-103 142,-14 152,28 270,75 49,20 95,4 146,-8 76,-19 87,-39 151,-67 40,-16 96,-31 139,-19 92,26 270,107 359,87 143,-35 195,-90 352,-35 66,24 206,77 270,51l9 -4c37,-18 86,-53 123,-76"/>
   <path class="fil0 str0" d="M511 1650l-97 -178c189,2 380,8 569,8 127,-2 382,-52 506,-97 44,-16 87,-33 130,-49 40,-15 79,-29 119,-44 99,-36 197,-73 295,-109 -48,171 -48,205 -165,346 -37,45 -75,71 -120,105l-17 13"/>
   <path class="fil0 str0" d="M887 1363c-54,-13 -329,-74 -354,-93 -11,-13 43,-64 51,-73 61,-68 126,-132 186,-202 156,-187 163,-270 258,-480 4,-9 9,-18 13,-27l4 -9c2,-4 4,-9 7,-13 56,194 5,483 -35,679 -14,67 -27,133 -41,199 2,-7 3,-14 4,-21"/>
   <path class="fil0 str0" d="M1130 1339c40,-261 78,-600 54,-865 -3,-41 -11,-84 -24,-132 -15,-52 13,-23 40,-3 148,110 224,180 313,346 53,101 98,238 108,352 2,29 3,59 4,88 1,25 2,64 -4,88 -3,12 -307,75 -355,91 -16,5 -32,10 -47,16"/>
  </g>
 </g>
</svg>
