<?xml version="1.0" encoding="UTF-8"?>
<!DOCTYPE svg PUBLIC "-//W3C//DTD SVG 1.1//EN" "http://www.w3.org/Graphics/SVG/1.1/DTD/svg11.dtd">
<!-- Creator: CorelDRAW Home & Student X8 -->
<svg xmlns="http://www.w3.org/2000/svg" xml:space="preserve" width="25.5mm" height="42mm" version="1.1" style="shape-rendering:geometricPrecision; text-rendering:geometricPrecision; image-rendering:optimizeQuality; fill-rule:evenodd; clip-rule:evenodd"
viewBox="0 0 2550 4200"
 xmlns:xlink="http://www.w3.org/1999/xlink">
 <defs>
  <style type="text/css">
   <![CDATA[
    .str0 {stroke:#9B2DAA;stroke-width:150;stroke-linecap:round;stroke-linejoin:round}
    .fil1 {fill:none}
    .fil0 {fill:#FEFEFE}
    .fil2 {fill:#0A1E28}
   ]]>
  </style>
 </defs>
 <g id="Слой_x0020_1">
  <metadata id="CorelCorpID_0Corel-Layer"/>
  <g id="_559699752">
   <g>
    <g>
     <path class="fil0" d="M742 2587l-4 0 -1 -4c-8,1 -26,18 -73,45 -115,66 -227,109 -354,155 -107,-484 38,-753 337,-1118 -7,-89 -13,-176 -16,-261 -11,-252 90,-604 227,-817 82,-127 302,-392 445,-432 206,30 492,408 583,588 65,127 134,462 121,607 -10,115 -21,223 -32,328l4 1 7 7c222,256 368,526 354,878 -4,92 -17,150 -58,232 -126,-31 -281,-156 -413,-216 -66,108 -100,299 -175,356 -53,41 -233,26 -299,26 -117,1 -363,8 -471,-7 -74,-28 -168,-235 -178,-328 -2,-21 -2,-34 -4,-40zm247 938l20 -310 -20 310zm600 139l2 -439 -2 439zm-292 375l1 -810 -1 810z"/>
     <path id="1" class="fil1 str0" d="M742 2587l-4 0 -1 -4c-8,1 -26,18 -73,45 -115,66 -227,109 -354,155 -107,-484 38,-753 337,-1118 -7,-89 -13,-176 -16,-261 -11,-252 90,-604 227,-817 82,-127 302,-392 445,-432 206,30 492,408 583,588 65,127 134,462 121,607 -10,115 -21,223 -32,328l4 1 7 7c222,256 368,526 354,878 -4,92 -17,150 -58,232 -126,-31 -281,-156 -413,-216 -66,108 -100,299 -175,356 -53,41 -233,26 -299,26 -117,1 -363,8 -471,-7 -74,-28 -168,-235 -178,-328 -2,-21 -2,-34 -4,-40zm247 938l20 -310m580 449l2 -439m-294 814l1 -810"/>
    </g>
    <g>
     <g>
      <path class="fil1 str0" d="M1876 2511l-1129 15c-36,-385 -91,-801 -107,-1183 -10,-252 91,-604 227,-817 82,-127 303,-392 445,-432 207,30 492,407 584,588 64,127 133,462 121,607 -39,441 -91,782 -141,1222z"/>
      <path class="fil1 str0" d="M1989 1617c226,258 375,531 360,886 -4,92 -17,149 -58,232 -125,-31 -276,-142 -408,-202 -66,108 -105,285 -180,342 -53,41 -232,26 -298,26 -117,1 -364,8 -471,-7 -75,-28 -134,-246 -178,-329 -24,-43 -8,-29 -83,2 -122,51 -226,109 -354,155 -106,-484 39,-754 337,-1119"/>
      <line class="fil1 str0" x1="1026" y1="2522" x2="1090" y2= "2898" />
      <line class="fil1 str0" x1="1593" y1="2515" x2="1515" y2= "2898" />
      <line class="fil1 str0" x1="1311" y1="2519" x2="1298" y2= "2898" />
      <line class="fil1 str0" x1="998" y1="3463" x2="1019" y2= "3154" />
      <line class="fil1 str0" x1="1598" y1="3603" x2="1600" y2= "3164" />
      <line class="fil1 str0" x1="1307" y1="3978" x2="1308" y2= "3168" />
      <line class="fil1 str0" x1="803" y1="641" x2="1869" y2= "634" />
     </g>
     <path class="fil1 str0" d="M1090 1100c143,-140 373,-137 513,6 141,144 138,374 -5,514 -144,140 -374,138 -514,-6 -140,-143 -138,-373 6,-514z"/>
    </g>
   </g>
   <path class="fil2" d="M1531 1098c145,104 178,305 74,450 -103,144 -304,177 -449,74 -144,-104 -178,-305 -74,-449 103,-145 305,-178 449,-75z"/>
  </g>
 </g>
</svg>
